<svg width="397" height="316" viewBox="0 0 397 316" fill="none" xmlns="http://www.w3.org/2000/svg">
<path opacity="0.52" d="M359.6 175.6C358.8 170.4 357.5 165.2 355.6 160.2C341.2 122.1 298.2 111.9 264.2 98.2C223.9 82 189.7 53.7 147.6 41.4C108.6 30 59.2 24.8 27.9 56.3C4.6 79.7 10.9 113.4 38.2 129.9C53.8 139.3 83 144.7 83.4 167.6C83.6 179.9 80.2 192.6 78.2 204.6C74.2 229.1 69.9 260.6 92.2 278C114.9 295.8 144.6 302.7 173.1 300.5C197.5 298.6 218.9 286 240.3 275.2C250.9 269.9 261.8 264.8 273.3 261.7C285.9 258.3 298.9 258.8 311.5 255.4C345.7 246.2 364.6 209.6 359.6 175.6Z" fill="#F9DABE"/>
<path d="M345.4 44.1C339.8 32.7 329.2 23.9 316.2 22.8C306.9 22 297.7 25.2 289.4 29.5C272.4 38.2 256.6 50.8 237.4 54.1C227.5 55.8 221 51 218.1 42C215.3 33.3 211.9 23.5 205.9 16.5C186.2 -6.5 139.6 10 125.9 32.2C108.5 60.3 156.4 98.5 124.1 119.7C103.8 133 71.4 130.5 59.2 154.8C47 179 65.3 204 86.9 214.8C126.1 234.3 173.2 221.4 204.5 193.1C228.1 171.8 247.5 146.7 276 131.4C304.1 116.3 343.6 108.6 349.4 71.3C351 61.6 349.3 52.1 345.4 44.1Z" fill="url(#paint0_linear_1_65)"/>
<path d="M381.5 145.5C377.3 137.9 371.6 130.9 364.6 124.9C342 105.7 312 98.1 283.6 92.5C273.4 90.5 263.4 83.2 267.7 71.7C270.9 63.4 275.2 56.4 272.7 47C263.4 12.5 213.2 22.7 192.5 37.4C183.1 44.1 174.9 53.3 163.8 57.2C149.3 62.3 132.4 58.9 117.3 61C101.1 63.3 86.2 71.4 76.5 84.6C65.5 99.7 67.7 120.7 77.9 135.5C94.2 159 119.8 178.1 141.7 196.1C167.8 217.6 196.7 242 228.2 254.7C258.5 266.9 294.8 270 325.5 257.5C353.2 246.2 376.5 224.5 386 195.6C391.9 178.3 389.7 160.6 381.5 145.5Z" fill="url(#paint1_linear_1_65)"/>
<path d="M44.9001 152.3C41.0001 141.6 30.2 130.2 18.1 129.8C1.40001 129.2 -3.49997 147.7 3.50003 160.3C9.10003 170.3 18.6001 177.7 25.4001 186.8C31.3001 194.7 40.8 194.4 45.2 185.4C49.5 176.6 49.1001 163.6 44.9001 152.3Z" fill="url(#paint2_linear_1_65)"/>
<path d="M66.5 216.3C66.2 215.1 65.7 213.9 65 212.8C64.4 211.8 63.5 210.7 62.6 209.9C60.8 208.4 59.5 207.6 57.2 206.8C55.9 206.3 54.6 206.3 53.3 206.1C49.9 205.8 45.7 208.2 44.3 211.3C43.3 213.3 42.7 215.1 42.7 217.4C42.7 218.3 42.9 219.6 43.1 220.5C43.3 221.5 43.8 222.6 44.4 223.5C45.5 225.3 46.9 226.9 48.8 228C50.8 229.2 52.8 229.6 55.1 229.7C56.4 229.7 57.7 229.5 59 229C60.1 228.7 61.1 228.3 62 227.6C62.7 227.1 63.3 226.6 64 226C65 225.1 65.7 224 66.1 222.8C66.9 220.7 67.1 218.6 66.5 216.3Z" fill="url(#paint3_linear_1_65)"/>
<path d="M370.4 46.4C369.2 43.5 366.8 41.4 363.5 41.9C360.7 42.3 357.7 45 358 48.1C359 56.5 360.9 64.3 359.9 72.9C359 81.3 356.2 89.4 352.1 96.7C348.9 102.3 357.1 107 360.7 101.7C366.1 93.7 369.9 84.7 371.5 75.2C373 66.3 373.8 55.1 370.4 46.4Z" fill="url(#paint4_linear_1_65)"/>
<path d="M383 107.6C376.7 105.4 366.9 103.9 361.1 107.8C358.4 109.6 359.7 113.1 362.6 113.5C365.5 113.9 368.3 113.2 371.2 113.5C374.3 113.8 377.4 114.7 380.2 116C384.5 118.1 388.8 124.2 393.9 123.8C395.2 123.7 396.4 123 396.7 121.6C398.8 114.3 388.4 109.6 383 107.6Z" fill="url(#paint5_linear_1_65)"/>
<path d="M387.2 88.8C386.5 87.7 385.2 86.8 383.9 86.4C382.6 85.9 381.1 85.9 379.7 86.5H379.6C377.8 86.3 376 87.7 375.1 89.1C373.9 90.9 373.6 93.3 374.2 95.4C375 98.3 378 100.7 381 100.6C386.7 100.3 390.3 93.5 387.2 88.8Z" fill="url(#paint6_linear_1_65)"/>
<path d="M318.5 275.2C317.6 271.7 314.6 269.5 311 269.5C306.7 269.5 303.7 273.3 300.8 275.9C295.4 280.7 288.8 284.1 281.8 286C273.9 288.2 265.6 288 257.5 288.7C239 290.3 220.9 296.9 208.8 311.4C207.4 313.1 208.7 315.9 211.1 315.3C226.6 311.1 241.2 303.9 257.6 303.6C274.3 303.3 289.9 302.7 304.4 293.3C309.8 289.7 320.5 283 318.5 275.2Z" fill="url(#paint7_linear_1_65)"/>
<path d="M117.3 22.5C113.6 18.2 108.1 15.9 102.6 14.6C98.2999 13.6 91 12.1 87.3 14.9C86 15.9 85.4 17.4 86.2 18.9C88.4 22.8 94.4 24.3 98.5 25.9C103.5 27.9 108.9 29.6 114.4 29.2C118 29 119.6 25.1 117.3 22.5Z" fill="url(#paint8_linear_1_65)"/>
<path d="M131.6 0.100009C127.8 -0.799991 124.6 4.90001 123.4 7.60001C121.4 11.9 120.8 15.8 122.2 20.4C122.7 22.1 125.2 22.1 125.7 20.4C127 16 128.6 11.5 131.3 7.70002C132.7 5.80002 135.9 1.10001 131.6 0.100009Z" fill="url(#paint9_linear_1_65)"/>
<defs>
<linearGradient id="paint0_linear_1_65" x1="383.697" y1="23.0273" x2="22.1649" y2="169.325" gradientUnits="userSpaceOnUse">
<stop stop-color="#F9DABE"/>
<stop offset="1" stop-color="#E9B7D4"/>
</linearGradient>
<linearGradient id="paint1_linear_1_65" x1="69.2752" y1="144.758" x2="389.367" y2="144.758" gradientUnits="userSpaceOnUse">
<stop stop-color="#FFB55C"/>
<stop offset="0.3018" stop-color="#F8B680"/>
<stop offset="1" stop-color="#E9B7D4"/>
</linearGradient>
<linearGradient id="paint2_linear_1_65" x1="45.2868" y1="153.141" x2="6.75053" y2="168.736" gradientUnits="userSpaceOnUse">
<stop stop-color="#F9DABE"/>
<stop offset="1" stop-color="#E9B7D4"/>
</linearGradient>
<linearGradient id="paint3_linear_1_65" x1="65.4722" y1="213.367" x2="43.68" y2="222.185" gradientUnits="userSpaceOnUse">
<stop stop-color="#F9DABE"/>
<stop offset="1" stop-color="#E9B7D4"/>
</linearGradient>
<linearGradient id="paint4_linear_1_65" x1="378.201" y1="65.7058" x2="343.216" y2="79.8629" gradientUnits="userSpaceOnUse">
<stop stop-color="#F9DABE"/>
<stop offset="1" stop-color="#E9B7D4"/>
</linearGradient>
<linearGradient id="paint5_linear_1_65" x1="393.362" y1="109.375" x2="363.822" y2="121.329" gradientUnits="userSpaceOnUse">
<stop stop-color="#F9DABE"/>
<stop offset="1" stop-color="#E9B7D4"/>
</linearGradient>
<linearGradient id="paint6_linear_1_65" x1="388.004" y1="90.4008" x2="374.459" y2="95.882" gradientUnits="userSpaceOnUse">
<stop stop-color="#F9DABE"/>
<stop offset="1" stop-color="#E9B7D4"/>
</linearGradient>
<linearGradient id="paint7_linear_1_65" x1="318.193" y1="274.28" x2="209.988" y2="318.066" gradientUnits="userSpaceOnUse">
<stop stop-color="#F9DABE"/>
<stop offset="1" stop-color="#E9B7D4"/>
</linearGradient>
<linearGradient id="paint8_linear_1_65" x1="115.112" y1="16.3238" x2="89.4658" y2="26.7018" gradientUnits="userSpaceOnUse">
<stop stop-color="#F9DABE"/>
<stop offset="1" stop-color="#E9B7D4"/>
</linearGradient>
<linearGradient id="paint9_linear_1_65" x1="135.935" y1="7.31631" x2="119.465" y2="13.9812" gradientUnits="userSpaceOnUse">
<stop stop-color="#F9DABE"/>
<stop offset="1" stop-color="#E9B7D4"/>
</linearGradient>
</defs>
</svg>
