<svg width="226" height="355" viewBox="0 0 226 355" fill="none" xmlns="http://www.w3.org/2000/svg">
<path d="M89.1232 348.734C97.7582 349.189 106.633 349.644 114.746 354.435H112.059C104.882 350.858 97.1057 350.457 89.058 350.045C76.8123 349.406 64.1425 348.745 53.7348 335.771C51.3205 332.769 49.5913 329.788 48.3842 326.84L36.3234 326.851C34.0287 326.851 32.169 324.986 32.169 322.71L32.1473 296.069C32.1473 293.793 33.9961 291.929 36.2908 291.929L48.6017 291.918C50.0263 281.914 49.9611 272.202 41.6741 261.862C31.647 249.344 19.8146 248.737 7.31887 248.086C5.11117 247.967 2.88173 247.848 0.652283 247.675V246.352C2.85998 246.547 5.12205 246.667 7.38412 246.786C19.6406 247.404 32.3104 248.065 42.7072 261.039C51.2226 271.66 51.3205 281.925 49.9285 291.907H55.6489C57.9327 291.907 59.8033 293.771 59.8033 296.037L59.825 322.678C59.825 324.965 57.9545 326.829 55.6815 326.829H49.7653C50.9399 329.506 52.5603 332.205 54.768 334.947C64.7951 347.477 76.6057 348.084 89.1232 348.734Z" fill="url(#paint0_linear_13_27)"/>
<path d="M179.302 350.555C179.073 351.845 178.856 353.113 178.66 354.392H177.333C177.54 353.037 177.779 351.682 178.018 350.338C180.139 338.036 182.151 326.417 172.113 313.909C162.086 301.391 150.264 300.784 137.758 300.134C125.512 299.494 112.842 298.844 102.435 285.87C92.0269 272.896 94.1802 260.443 96.2683 248.39C98.389 236.088 100.412 224.469 90.3847 211.961C80.3577 199.454 68.5253 198.836 56.0295 198.186C43.7839 197.546 31.1141 196.907 20.7064 183.922C10.3096 170.948 12.452 158.494 14.5401 146.453C16.6608 134.151 18.6836 122.532 8.65653 110.024C6.0682 106.794 3.37112 104.366 0.565277 102.524V100.985C3.74088 102.947 6.79685 105.602 9.68969 109.19C20.0865 122.163 17.9223 134.617 15.856 146.67C13.7136 158.971 11.7125 170.59 21.7396 183.098C31.7666 195.617 43.5881 196.224 56.0948 196.874C68.3404 197.514 81.0102 198.164 91.4179 211.138C101.815 224.111 99.6723 236.554 97.5842 248.607C95.4418 260.909 93.4407 272.538 103.468 285.057C113.495 297.576 125.316 298.183 137.823 298.833C150.069 299.472 162.738 300.112 173.146 313.097C183.543 326.059 181.39 338.513 179.302 350.555Z" fill="url(#paint1_linear_13_27)"/>
<path d="M35.312 81.8005L34.9749 81.7463V74.712C35.0184 73.7582 35.312 72.9887 36.3343 72.7286L43.7187 71.1895C39.847 72.696 36.6388 76.327 35.312 81.8005Z" fill="url(#paint2_linear_13_27)"/>
<path d="M44.8062 71.0052L46.5354 70.5283L35.138 66.0844V61.2829L51.799 68.4256V73.2162L37.8786 77.2807C39.76 74.3651 42.729 71.8831 44.8062 71.0052Z" fill="url(#paint3_linear_13_27)"/>
<path d="M40.3255 53.0239C37.0847 53.0023 34.8009 49.8374 34.8009 45.361C34.8009 43.6052 35.1706 42.1853 35.5078 41.2966L39.1184 41.9144L38.9335 42.3263C38.5964 43.1717 38.281 44.2447 38.2919 45.7296C38.2919 47.4962 39.0423 48.3308 39.7383 48.3308C40.5104 48.3417 41.0324 47.3554 41.8046 45.7729C43.0009 43.1608 44.4364 41.9469 46.3505 41.9794C49.8197 42.0011 52.06 45.1009 52.06 49.8591C52.0383 51.8967 51.625 53.8477 51.1683 54.9099L47.4271 54.2704L47.6882 53.6959C48.308 52.211 48.5691 51.2356 48.5691 49.4255C48.5691 48.1249 48.0579 46.7267 46.9378 46.705C46.1982 46.6942 45.6762 47.3012 44.8606 49.057C44.0667 50.7804 42.7181 53.0456 40.3255 53.0239Z" fill="url(#paint4_linear_13_27)"/>
<path d="M51.799 42.2612L36.4757 35.5413C35.399 35.0644 35.0945 34.2406 35.0945 33.1568V29.6559L51.7881 25.9708V30.187C51.7881 30.187 49.8741 30.5989 49.2977 30.7398V36.5493C49.7327 36.7227 51.7881 37.5031 51.7881 37.5031L51.799 42.2612Z" fill="url(#paint5_linear_13_27)"/>
<path d="M10.9077 3.59985C13.9202 1.93071 17.4003 0.998593 21.0871 0.998593L45.2412 0.976895C48.3516 1.34541 51.4728 1.508 54.5614 1.67058C67.0789 2.3209 78.8895 2.92785 88.9166 15.4465C98.9437 27.9651 96.9317 39.5841 94.8002 51.8751C92.7121 63.9168 90.5588 76.3703 100.966 89.3442C111.363 102.329 124.033 102.979 136.29 103.608C148.785 104.258 160.618 104.865 170.645 117.384C180.672 129.902 178.66 141.521 176.528 153.812C174.44 165.865 172.287 178.318 182.695 191.292C193.092 204.266 205.761 204.927 218.018 205.556C220.28 205.675 222.531 205.783 224.75 205.989L224.804 277.199C224.304 276.462 223.749 275.714 223.151 274.977C212.754 261.992 200.084 261.342 187.828 260.713C175.31 260.063 163.5 259.456 153.473 246.938C143.446 234.419 145.447 222.789 147.589 210.487C149.677 198.435 151.83 185.992 141.423 173.018C131.026 160.044 118.356 159.383 106.1 158.755C93.5821 158.104 81.7715 157.497 71.7444 144.979C61.7174 132.46 63.7184 120.841 65.8609 108.55C67.9381 96.4976 70.1022 84.0441 59.6945 71.0702C56.2036 66.7239 52.4624 63.7542 48.5582 61.7165L51.799 62.2693V57.7387L35.1054 54.899V57.6737C31.5383 57.1751 27.9385 56.9909 24.3714 56.8175C15.9974 56.3948 7.93878 55.9612 0.52179 51.9726V53.425C8.12366 57.2835 16.3019 57.7062 24.3062 58.1181C27.982 58.3132 31.5927 58.4974 35.1054 58.9852V59.4296L43.2184 60.8061C48.6887 62.6703 53.8762 65.9219 58.6614 71.8831C68.6885 84.4017 66.6765 96.0207 64.5449 108.312C62.4569 120.353 60.3036 132.807 70.7113 145.781C81.1081 158.765 93.7779 159.416 106.034 160.044C118.53 160.695 130.363 161.302 140.39 173.82C150.417 186.339 148.405 197.958 146.273 210.249C144.185 222.301 142.032 234.755 152.439 247.729C162.847 260.703 175.528 261.396 187.773 262.025C200.291 262.675 212.102 263.282 222.129 275.801C223.14 277.069 224.043 278.315 224.804 279.584L224.848 333.56C224.858 341.234 220.758 347.964 214.636 351.671C221.128 348.04 225.511 341.125 225.5 333.191L225.272 21.657C225.261 9.96212 215.734 0.489188 204.01 0.500026L21.7178 0.630084C17.7592 0.630084 14.0616 1.7031 10.9077 3.59985ZM203.358 0.857686C215.092 0.846847 224.608 10.3306 224.619 22.0146L224.717 164.412C224.652 164.347 224.597 164.271 224.532 164.185C214.505 151.666 216.506 140.036 218.649 127.735C220.737 115.682 222.89 103.239 212.482 90.2654C202.085 77.2916 189.416 76.6304 177.159 76.0018C164.642 75.3515 152.831 74.7445 142.804 62.2259C132.777 49.7073 134.778 38.0883 136.92 25.7973C138.312 17.6792 139.748 9.39852 137.366 0.90105L203.358 0.857686ZM136.039 0.911866C138.465 9.14921 137.062 17.2132 135.626 25.5914C133.538 37.6331 131.385 50.0867 141.793 63.0605C152.189 76.0451 164.859 76.6955 177.116 77.3241C189.611 77.9744 201.444 78.5814 211.471 91.1C221.498 103.619 219.486 115.238 217.354 127.529C215.266 139.581 213.113 152.035 223.521 165.009C223.912 165.507 224.326 165.995 224.739 166.45L224.771 204.656C222.542 204.472 220.323 204.353 218.105 204.244C205.587 203.594 193.777 202.987 183.75 190.468C173.723 177.95 175.724 166.331 177.866 154.018C179.954 141.966 182.107 129.523 171.7 116.549C161.303 103.575 148.633 102.914 136.377 102.285C123.859 101.635 112.048 101.028 102.021 88.5096C91.9943 75.991 93.9954 64.372 96.1378 52.081C98.215 40.0285 100.379 27.5749 89.9715 14.601C82.0216 4.68371 72.745 1.97406 63.3595 0.95523L136.039 0.911866Z" fill="url(#paint6_linear_13_27)"/>
<path d="M0.663147 247.675C2.89259 247.859 5.11116 247.978 7.32973 248.086C19.8255 248.737 31.6579 249.344 41.6849 261.862C49.9611 272.202 50.0372 281.914 48.6125 291.918L36.3016 291.929C34.0069 291.929 32.1581 293.793 32.1581 296.069L32.1799 322.71C32.1799 324.997 34.0396 326.862 36.3343 326.851L48.395 326.84C49.6131 329.788 51.3314 332.769 53.7457 335.771C64.1425 348.745 76.8123 349.406 89.0579 350.045C97.1057 350.457 104.882 350.858 112.059 354.435L21.9788 354.5C10.2661 354.511 0.728399 345.027 0.728399 333.343L0.663147 247.675Z" fill="url(#paint7_linear_13_27)"/>
<path d="M0.554413 102.502C3.36025 104.356 6.05734 106.773 8.64567 110.003C18.6727 122.521 16.6608 134.14 14.5292 146.431C12.4412 158.473 10.2878 170.926 20.6956 183.9C31.0924 196.885 43.7622 197.535 56.0187 198.164C68.5144 198.814 80.3468 199.421 90.3739 211.94C100.401 224.458 98.389 236.077 96.2575 248.368C94.1694 260.421 92.0161 272.874 102.424 285.848C112.831 298.822 125.49 299.483 137.747 300.112C150.264 300.762 162.075 301.369 172.102 313.888C182.129 326.406 180.128 338.025 178.007 350.316C177.768 351.671 177.54 353.026 177.322 354.37L114.735 354.413C106.622 349.612 97.7583 349.157 89.1124 348.712C76.5948 348.062 64.7842 347.455 54.7571 334.936C52.5603 332.194 50.929 329.495 49.7545 326.818H55.6707C57.9545 326.818 59.8142 324.954 59.8142 322.667L59.7924 296.026C59.7924 293.75 57.9219 291.896 55.638 291.896H49.9176C51.3096 281.925 51.2118 271.65 42.6964 261.028C32.3104 248.065 19.6406 247.404 7.39501 246.775C5.13293 246.656 2.88174 246.547 0.663166 246.341L0.554413 102.502Z" fill="url(#paint8_linear_13_27)"/>
<path d="M0.554416 100.963C3.73002 102.925 6.78599 105.58 9.67883 109.168C20.0757 122.142 17.9115 134.595 15.8451 146.648C13.7027 158.95 11.7016 170.569 21.7287 183.077C31.7558 195.595 43.5773 196.202 56.0839 196.852C68.3296 197.492 80.9993 198.142 91.407 211.116C101.804 224.09 99.6614 236.533 97.5734 248.585C95.4309 260.887 93.4299 272.517 103.457 285.035C113.484 297.554 125.305 298.161 137.812 298.811C150.058 299.451 162.728 300.09 173.135 313.075C183.532 326.049 181.39 338.502 179.302 350.544C179.073 351.834 178.856 353.102 178.66 354.381L204.271 354.359C207.915 354.359 211.351 353.438 214.353 351.801C214.462 351.747 214.549 351.714 214.625 351.639C220.748 347.932 224.837 341.212 224.837 333.527L224.793 279.551C224.032 278.294 223.129 277.047 222.118 275.768C212.091 263.25 200.269 262.643 187.763 261.992C175.517 261.353 162.847 260.703 152.439 247.729C142.032 234.755 144.185 222.301 146.273 210.249C148.394 197.947 150.417 186.328 140.39 173.82C130.363 161.313 118.53 160.695 106.034 160.044C93.7887 159.405 81.119 158.765 70.7113 145.781C60.3144 132.807 62.4569 120.353 64.5449 108.312C66.6656 96.0099 68.6884 84.3909 58.6614 71.8832C53.8762 65.9111 48.6887 62.6595 43.2184 60.8061L35.1054 59.4296V58.9852C31.5926 58.4866 27.982 58.3024 24.3062 58.1181C16.3019 57.7062 8.12365 57.2727 0.52179 53.425L0.554416 100.963ZM34.9749 81.7463V74.712C35.0184 73.7582 35.312 72.9887 36.3343 72.7286L43.7187 71.1895C39.8579 72.7069 36.6497 76.327 35.3229 81.8005L34.9749 81.7463ZM51.7882 68.4256V73.2163L37.8677 77.2808C39.7492 74.3652 42.729 71.8832 44.7953 71.0052L46.5245 70.5283L35.1271 66.0845V61.283L51.7882 68.4256Z" fill="url(#paint9_linear_13_27)"/>
<path d="M35.312 81.8005L34.9749 81.7463V74.712C35.0184 73.7582 35.312 72.9887 36.3343 72.7286L43.7187 71.1895C39.847 72.696 36.6388 76.327 35.312 81.8005Z" fill="url(#paint10_linear_13_27)"/>
<path d="M44.8062 71.0052L46.5354 70.5283L35.138 66.0844V61.2829L51.799 68.4256V73.2162L37.8786 77.2807C39.76 74.3651 42.729 71.8831 44.8062 71.0052Z" fill="url(#paint11_linear_13_27)"/>
<path d="M10.9077 3.59986C8.03664 5.27985 5.63319 7.62098 3.83876 10.4282C1.71807 13.7123 0.500031 17.625 0.500031 21.8087L0.521781 51.9726C7.93877 55.9612 15.9974 56.3839 24.3714 56.8175C27.9385 57.0017 31.5383 57.1752 35.1054 57.6737V54.899L51.799 57.7388V62.2693L48.5582 61.7165C52.4624 63.7433 56.2035 66.724 59.6945 71.0702C70.0914 84.0441 67.9272 96.4976 65.8608 108.55C63.7184 120.852 61.7173 132.471 71.7444 144.979C81.7715 157.497 93.593 158.104 106.1 158.755C118.345 159.394 131.015 160.044 141.423 173.018C151.82 185.992 149.677 198.435 147.589 210.487C145.447 222.789 143.446 234.419 153.473 246.938C163.5 259.456 175.321 260.063 187.828 260.713C200.073 261.353 212.743 261.992 223.151 274.977C223.749 275.714 224.293 276.462 224.804 277.199L224.75 205.989C222.542 205.794 220.28 205.675 218.018 205.556C205.772 204.916 193.102 204.266 182.695 191.292C172.298 178.318 174.44 165.865 176.528 153.812C178.649 141.51 180.672 129.891 170.645 117.384C160.618 104.876 148.785 104.258 136.29 103.608C124.044 102.968 111.374 102.329 100.966 89.3441C90.5696 76.3703 92.7121 63.9168 94.8001 51.8751C96.9208 39.5732 98.9437 27.9542 88.9166 15.4465C78.8895 2.92786 67.068 2.32091 54.5614 1.67059C51.4619 1.51885 48.3407 1.34542 45.2412 0.976903L21.0871 0.998601C17.4003 0.998601 13.9202 1.93072 10.9077 3.59986ZM52.06 49.8374C52.0383 51.8751 51.625 53.826 51.1683 54.8882L47.4271 54.2487L47.6881 53.6743C48.308 52.1894 48.5691 51.2139 48.5691 49.4039C48.5691 48.1032 48.0579 46.705 46.9378 46.6834C46.1982 46.6725 45.6762 47.2795 44.8606 49.0353C44.0667 50.7695 42.729 53.0456 40.3364 53.0131C37.0956 52.9914 34.8117 49.8265 34.8117 45.3502C34.8117 43.5943 35.1815 42.1745 35.5186 41.2857L39.1293 41.9035L38.9444 42.3154C38.6072 43.1608 38.2919 44.2338 38.3027 45.7187C38.3027 47.4854 39.0531 48.32 39.7491 48.32C40.5213 48.3308 41.0433 47.3445 41.8155 45.7621C43.0118 43.15 44.4473 41.936 46.3614 41.9686C49.8088 41.9794 52.0492 45.0792 52.06 49.8374ZM51.7882 30.1761C51.7882 30.1761 49.8741 30.588 49.2977 30.7289V36.5384C49.7327 36.7118 51.7882 37.4922 51.7882 37.4922V42.2612L36.4648 35.5413C35.3881 35.0644 35.0836 34.2406 35.0836 33.1568V29.6559L51.7773 25.9708L51.7882 30.1761Z" fill="url(#paint12_linear_13_27)"/>
<path d="M40.3255 53.0239C37.0847 53.0023 34.8009 49.8374 34.8009 45.361C34.8009 43.6052 35.1706 42.1853 35.5078 41.2966L39.1184 41.9144L38.9335 42.3263C38.5964 43.1717 38.281 44.2447 38.2919 45.7296C38.2919 47.4962 39.0423 48.3308 39.7383 48.3308C40.5104 48.3417 41.0324 47.3554 41.8046 45.7729C43.0009 43.1608 44.4364 41.9469 46.3505 41.9794C49.8197 42.0011 52.06 45.1009 52.06 49.8591C52.0383 51.8967 51.625 53.8477 51.1683 54.9099L47.4271 54.2704L47.6882 53.6959C48.308 52.211 48.5691 51.2356 48.5691 49.4255C48.5691 48.1249 48.0579 46.7267 46.9378 46.705C46.1982 46.6942 45.6762 47.3012 44.8606 49.057C44.0667 50.7804 42.7181 53.0456 40.3255 53.0239Z" fill="url(#paint13_linear_13_27)"/>
<path d="M51.799 42.2612L36.4757 35.5413C35.399 35.0644 35.0945 34.2406 35.0945 33.1568V29.6559L51.7881 25.9708V30.187C51.7881 30.187 49.8741 30.5989 49.2977 30.7398V36.5493C49.7327 36.7227 51.7881 37.5031 51.7881 37.5031L51.799 42.2612Z" fill="url(#paint14_linear_13_27)"/>
<path d="M63.3378 0.966058L136.039 0.911845C138.465 9.14919 137.062 17.2131 135.626 25.5914C133.538 37.6331 131.385 50.0866 141.793 63.0605C152.189 76.0451 164.859 76.6955 177.116 77.3241C189.611 77.9744 201.444 78.5814 211.471 91.1C221.498 103.619 219.486 115.238 217.354 127.529C215.266 139.581 213.113 152.035 223.521 165.008C223.912 165.507 224.325 165.995 224.739 166.45L224.771 204.656C222.542 204.472 220.323 204.353 218.105 204.244C205.587 203.594 193.777 202.987 183.75 190.468C173.723 177.95 175.724 166.331 177.866 154.018C179.954 141.966 182.107 129.523 171.7 116.549C161.303 103.575 148.633 102.914 136.377 102.285C123.859 101.635 112.048 101.028 102.021 88.5095C91.9943 75.9909 93.9954 64.372 96.1378 52.081C98.215 40.0284 100.379 27.5748 89.9715 14.601C81.9999 4.69453 72.7232 1.98489 63.3378 0.966058Z" fill="url(#paint15_linear_13_27)"/>
<path d="M10.9077 3.59985C13.9202 1.93071 17.4003 0.998593 21.0871 0.998593L45.2412 0.976895C48.3516 1.34541 51.4728 1.508 54.5614 1.67058C67.0789 2.3209 78.8895 2.92785 88.9166 15.4465C98.9437 27.9651 96.9317 39.5841 94.8002 51.8751C92.7121 63.9168 90.5588 76.3703 100.966 89.3442C111.363 102.329 124.033 102.979 136.29 103.608C148.785 104.258 160.618 104.865 170.645 117.384C180.672 129.902 178.66 141.521 176.528 153.812C174.44 165.865 172.287 178.318 182.695 191.292C193.092 204.266 205.761 204.927 218.018 205.556C220.28 205.675 222.531 205.783 224.75 205.989L224.804 277.199C224.304 276.462 223.749 275.714 223.151 274.977C212.754 261.992 200.084 261.342 187.828 260.713C175.31 260.063 163.5 259.456 153.473 246.938C143.446 234.419 145.447 222.789 147.589 210.487C149.677 198.435 151.83 185.992 141.423 173.018C131.026 160.044 118.356 159.383 106.1 158.755C93.5821 158.104 81.7715 157.497 71.7444 144.979C61.7174 132.46 63.7184 120.841 65.8609 108.55C67.9381 96.4976 70.1022 84.0441 59.6945 71.0702C56.2036 66.7239 52.4624 63.7542 48.5582 61.7165L51.799 62.2693V57.7387L35.1054 54.899V57.6737C31.5383 57.1751 27.9385 56.9909 24.3714 56.8175C15.9974 56.3948 7.93878 55.9612 0.52179 51.9726V53.425C8.12366 57.2835 16.3019 57.7062 24.3062 58.1181C27.982 58.3132 31.5927 58.4974 35.1054 58.9852V59.4296L43.2184 60.8061C48.6887 62.6703 53.8762 65.9219 58.6614 71.8831C68.6885 84.4017 66.6765 96.0207 64.5449 108.312C62.4569 120.353 60.3036 132.807 70.7113 145.781C81.1081 158.765 93.7779 159.416 106.034 160.044C118.53 160.695 130.363 161.302 140.39 173.82C150.417 186.339 148.405 197.958 146.273 210.249C144.185 222.301 142.032 234.755 152.439 247.729C162.847 260.703 175.528 261.396 187.773 262.025C200.291 262.675 212.102 263.282 222.129 275.801C223.14 277.069 224.043 278.315 224.804 279.584L224.848 333.56C224.858 341.234 220.758 347.964 214.636 351.671C221.128 348.04 225.511 341.125 225.5 333.191L225.272 21.657C225.261 9.96212 215.734 0.489188 204.01 0.500026L21.7178 0.630084C17.7592 0.630084 14.0616 1.7031 10.9077 3.59985ZM203.358 0.857686C215.092 0.846847 224.608 10.3306 224.619 22.0146L224.717 164.412C224.652 164.347 224.597 164.271 224.532 164.185C214.505 151.666 216.506 140.036 218.649 127.735C220.737 115.682 222.89 103.239 212.482 90.2654C202.085 77.2916 189.416 76.6304 177.159 76.0018C164.642 75.3515 152.831 74.7445 142.804 62.2259C132.777 49.7073 134.778 38.0883 136.92 25.7973C138.312 17.6792 139.748 9.39852 137.366 0.90105L203.358 0.857686ZM136.039 0.911866C138.465 9.14921 137.062 17.2132 135.626 25.5914C133.538 37.6331 131.385 50.0867 141.793 63.0605C152.189 76.0451 164.859 76.6955 177.116 77.3241C189.611 77.9744 201.444 78.5814 211.471 91.1C221.498 103.619 219.486 115.238 217.354 127.529C215.266 139.581 213.113 152.035 223.521 165.009C223.912 165.507 224.326 165.995 224.739 166.45L224.771 204.656C222.542 204.472 220.323 204.353 218.105 204.244C205.587 203.594 193.777 202.987 183.75 190.468C173.723 177.95 175.724 166.331 177.866 154.018C179.954 141.966 182.107 129.523 171.7 116.549C161.303 103.575 148.633 102.914 136.377 102.285C123.859 101.635 112.048 101.028 102.021 88.5096C91.9943 75.991 93.9954 64.372 96.1378 52.081C98.215 40.0285 100.379 27.5749 89.9715 14.601C82.0216 4.68371 72.745 1.97406 63.3595 0.95523L136.039 0.911866Z" fill="url(#paint16_linear_13_27)"/>
<path d="M137.366 0.911895L203.358 0.868565C215.092 0.857726 224.608 10.3415 224.619 22.0255L224.717 164.423C224.652 164.358 224.597 164.282 224.532 164.196C214.505 151.677 216.506 140.047 218.649 127.745C220.737 115.693 222.89 103.25 212.482 90.2763C202.085 77.3024 189.416 76.6413 177.159 76.0126C164.642 75.3623 152.831 74.7554 142.804 62.2368C132.777 49.7182 134.778 38.0992 136.92 25.8082C138.312 17.7009 139.759 9.40937 137.366 0.911895Z" fill="url(#paint17_linear_13_27)"/>
<path d="M96.1426 318.474H97.937L97.8282 321.011L99.8728 319.526L100.83 321.119L98.5351 322.376L100.83 323.633L99.8728 325.194L97.8282 323.742L97.9479 326.256H96.1534L96.2948 323.742L94.2176 325.194L93.2606 323.633L95.5553 322.376L93.2606 321.119L94.2176 319.526L96.2948 321L96.1426 318.474Z" fill="white"/>
<path d="M96.1317 305.381H97.9261L97.8174 307.917L99.8619 306.433L100.819 308.026L98.5243 309.283L100.819 310.54L99.8619 312.101L97.8174 310.649L97.937 313.163H96.1426L96.2839 310.649L94.2068 312.101L93.2497 310.54L95.5444 309.283L93.2497 308.026L94.2068 306.433L96.2839 307.907L96.1317 305.381Z" fill="white"/>
<path d="M96.1208 292.288H97.9152L97.8065 294.824L99.851 293.34L100.808 294.933L98.5134 296.19L100.808 297.447L99.851 299.008L97.8065 297.556L97.9261 300.07H96.1317L96.2731 297.556L94.1959 299.008L93.2388 297.447L95.5335 296.19L93.2388 294.933L94.1959 293.34L96.2731 294.814L96.1208 292.288Z" fill="white"/>
<path d="M96.1099 279.195H97.9044L97.7956 281.731L99.8402 280.247L100.797 281.84L98.5025 283.097L100.797 284.354L99.8402 285.915L97.7956 284.463L97.9152 286.977H96.1208L96.2622 284.463L94.185 285.915L93.228 284.354L95.5227 283.097L93.228 281.84L94.185 280.247L96.2622 281.721L96.1099 279.195Z" fill="white"/>
<path d="M96.0882 257.03H97.8826L97.7739 259.566L99.8184 258.082L100.775 259.675L98.4807 260.932L100.775 262.189L99.8184 263.75L97.7739 262.298L97.8935 264.812H96.099L96.2404 262.298L94.1632 263.75L93.2062 262.189L95.5009 260.932L93.2062 259.675L94.1632 258.082L96.2404 259.556L96.0882 257.03Z" fill="white"/>
<path d="M96.0882 243.937H97.8826L97.7739 246.473L99.8184 244.988L100.775 246.582L98.4807 247.839L100.775 249.096L99.8184 250.657L97.7739 249.205L97.8935 251.719H96.099L96.2404 249.205L94.1632 250.657L93.2062 249.096L95.5009 247.839L93.2062 246.582L94.1632 244.988L96.2404 246.463L96.0882 243.937Z" fill="white"/>
<path d="M96.0773 230.844H97.8717L97.7521 233.391L99.7967 231.906L100.754 233.5L98.459 234.757L100.754 236.014L99.7967 237.575L97.7521 236.122L97.8717 238.637H96.0773L96.2187 236.122L94.1415 237.575L93.1844 236.014L95.4791 234.757L93.1844 233.5L94.1415 231.906L96.2187 233.38L96.0773 230.844Z" fill="white"/>
<path d="M96.0664 217.751H97.8608L97.7521 220.298L99.7967 218.813L100.754 220.407L98.459 221.664L100.754 222.921L99.7967 224.482L97.7521 223.029L97.8717 225.544H96.0773L96.2187 223.029L94.1415 224.482L93.1844 222.921L95.4791 221.664L93.1844 220.407L94.1306 218.813L96.2078 220.287L96.0664 217.751Z" fill="white"/>
<path d="M96.0447 195.586H97.8391L97.7304 198.122L99.7749 196.637L100.732 198.231L98.4373 199.488L100.732 200.745L99.7749 202.306L97.7304 200.854L97.85 203.368H96.0556L96.1969 200.854L94.1198 202.306L93.1627 200.745L95.4574 199.488L93.1627 198.231L94.1198 196.637L96.1969 198.111L96.0447 195.586Z" fill="white"/>
<path d="M96.0447 182.504H97.8391L97.7304 185.04L99.7749 183.555L100.732 185.149L98.4373 186.406L100.732 187.663L99.7749 189.224L97.7304 187.771L97.85 190.286H96.0556L96.1969 187.771L94.1198 189.224L93.1627 187.663L95.4574 186.406L93.1627 185.149L94.1089 183.555L96.1861 185.029L96.0447 182.504Z" fill="white"/>
<path d="M96.0338 169.411H97.8282L97.7195 171.947L99.764 170.462L100.721 172.055L98.4264 173.313L100.721 174.57L99.764 176.131L97.7195 174.678L97.8391 177.193H96.0447L96.186 174.678L94.1089 176.131L93.1518 174.57L95.4465 173.313L93.1518 172.055L94.1089 170.462L96.186 171.936L96.0338 169.411Z" fill="white"/>
<path d="M96.0229 156.318H97.8174L97.7086 158.854L99.7532 157.369L100.71 158.962L98.4155 160.22L100.71 161.477L99.7532 163.038L97.7086 161.585L97.8282 164.1H96.0338L96.1752 161.585L94.098 163.038L93.141 161.477L95.4357 160.22L93.141 158.962L94.098 157.369L96.1752 158.843L96.0229 156.318Z" fill="white"/>
<path d="M113.097 142.542H110.966L103.897 135.649C102.048 133.806 100.46 132.885 99.1333 132.885C98.0349 132.885 97.1757 133.221 96.5558 133.893C95.9359 134.565 95.6314 135.378 95.6314 136.353C95.6314 138.196 96.5123 139.54 98.2633 140.374L96.98 142.553C95.7075 141.946 94.7505 141.09 94.098 140.006C93.4455 138.922 93.1192 137.708 93.1083 136.396C93.1083 134.76 93.6521 133.34 94.7288 132.126C95.8163 130.912 97.2627 130.305 99.1007 130.305C101.08 130.305 103.244 131.465 105.582 133.784L110.563 138.77L110.552 129.937H113.075L113.097 142.542Z" fill="white"/>
<path d="M101.504 118.22C101.787 116.724 102.428 115.51 103.44 114.557C104.451 113.603 105.724 113.126 107.279 113.126C109.182 113.126 110.683 113.776 111.792 115.077C112.901 116.377 113.445 117.96 113.445 119.824C113.445 121.309 113.108 122.631 112.423 123.791C111.738 124.94 110.759 125.764 109.465 126.251L108.171 124.073C109.987 123.498 110.89 122.079 110.89 119.824C110.89 118.61 110.574 117.624 109.932 116.865C109.302 116.107 108.41 115.716 107.268 115.727C106.126 115.727 105.234 116.107 104.593 116.876C103.951 117.635 103.625 118.621 103.625 119.835V120.507L102.026 121.537L95.8924 117.017L95.9033 125.699H93.4672L93.4563 113.971L95.7402 113.982L101.504 118.22Z" fill="white"/>
<path d="M106.898 93.844H109.334V96.2177H113.065V98.8081H109.334L109.345 108.769H106.909L93.4563 101.767V98.9707L106.909 105.972V98.7973H101.363V96.2068H106.909L106.898 93.844Z" fill="white"/>
<path d="M101.091 83.634C101.091 81.7915 101.635 80.2307 102.722 78.9517C103.81 77.6728 105.321 77.0333 107.246 77.0333C109.149 77.0333 110.65 77.6836 111.76 78.9842C112.869 80.2849 113.413 81.8673 113.413 83.7316C113.413 85.2165 113.054 86.5496 112.336 87.7202C111.618 88.8908 110.574 89.7145 109.215 90.1805L107.953 87.9803C108.91 87.7202 109.628 87.2108 110.128 86.4737C110.628 85.7259 110.868 84.8154 110.868 83.7424C110.868 82.5176 110.552 81.5205 109.911 80.7509C109.28 79.9922 108.388 79.6129 107.246 79.6129C106.104 79.6129 105.213 79.9922 104.571 80.7618C103.929 81.5313 103.603 82.5068 103.603 83.6991V89.2268L93.4346 88.5331L93.4237 77.8137H95.8598L95.8707 86.1594L101.08 86.4954L101.091 83.634Z" fill="white"/>
<path d="M166.778 324.555C166.778 325.693 166.397 326.636 165.647 327.384C164.896 328.132 163.961 328.5 162.863 328.5C161.764 328.5 160.829 328.132 160.079 327.384C159.317 326.647 158.948 325.704 158.948 324.555C158.948 323.861 159.111 323.232 159.448 322.658C159.774 322.084 160.22 321.628 160.786 321.303L161.297 322.17C160.883 322.387 160.546 322.712 160.296 323.135C160.046 323.558 159.926 324.035 159.926 324.555C159.926 325.422 160.209 326.137 160.775 326.679C161.34 327.232 162.036 327.503 162.885 327.503C163.722 327.503 164.418 327.232 164.983 326.679C165.549 326.126 165.821 325.422 165.821 324.555C165.821 324.035 165.701 323.568 165.451 323.135C165.201 322.712 164.875 322.387 164.461 322.17L164.962 321.292C165.527 321.607 165.973 322.062 166.31 322.636C166.615 323.232 166.778 323.861 166.778 324.555Z" fill="white"/>
<path d="M161.231 315.841V314.908H166.637V315.841H165.712C166.43 316.307 166.778 316.989 166.789 317.878C166.789 318.637 166.517 319.276 165.962 319.807C165.408 320.339 164.744 320.609 163.95 320.609C163.156 320.609 162.482 320.349 161.938 319.818C161.384 319.287 161.112 318.648 161.112 317.889C161.112 317 161.471 316.317 162.178 315.851H161.231V315.841ZM165.864 317.748C165.864 317.206 165.68 316.751 165.31 316.382C164.94 316.014 164.483 315.83 163.929 315.83C163.385 315.83 162.928 316.014 162.547 316.382C162.178 316.751 161.993 317.206 161.993 317.748C161.993 318.29 162.178 318.734 162.547 319.103C162.917 319.471 163.374 319.656 163.929 319.656C164.472 319.656 164.929 319.471 165.31 319.103C165.68 318.745 165.864 318.29 165.864 317.748Z" fill="white"/>
<path d="M162.134 312.546C161.46 312.242 161.134 311.678 161.134 310.866H162.112C162.091 311.321 162.21 311.722 162.482 312.047C162.754 312.372 163.178 312.546 163.765 312.546H166.626V313.478H161.221V312.546H162.134Z" fill="white"/>
<path d="M159.067 305.782V304.839H166.637V305.771H165.712C166.43 306.238 166.778 306.92 166.778 307.809C166.778 308.568 166.506 309.207 165.951 309.738C165.397 310.269 164.733 310.54 163.939 310.54C163.146 310.54 162.471 310.28 161.928 309.749C161.373 309.218 161.101 308.579 161.101 307.82C161.101 306.931 161.46 306.248 162.167 305.782H159.067ZM165.864 307.69C165.864 307.148 165.68 306.693 165.31 306.324C164.94 305.956 164.483 305.771 163.929 305.771C163.385 305.771 162.917 305.956 162.547 306.324C162.178 306.693 161.993 307.148 161.993 307.69C161.993 308.232 162.178 308.676 162.547 309.045C162.917 309.413 163.374 309.597 163.929 309.597C164.472 309.597 164.929 309.413 165.31 309.045C165.68 308.687 165.864 308.232 165.864 307.69Z" fill="white"/>
<path d="M159.056 295.973V294.987H166.626V295.973H163.222V299.637H166.626V300.634H159.056V299.637H162.265V295.973H159.056Z" fill="white"/>
<path d="M165.93 288.917C166.473 289.47 166.756 290.142 166.756 290.933C166.756 291.725 166.484 292.397 165.941 292.939C165.397 293.48 164.722 293.762 163.918 293.762C163.113 293.762 162.45 293.491 161.895 292.939C161.351 292.386 161.068 291.725 161.068 290.933C161.068 290.142 161.34 289.47 161.884 288.917C162.428 288.365 163.102 288.083 163.907 288.083C164.712 288.083 165.386 288.365 165.93 288.917ZM165.843 290.923C165.843 290.381 165.658 289.936 165.288 289.568C164.918 289.199 164.461 289.015 163.918 289.015C163.374 289.015 162.917 289.199 162.547 289.568C162.178 289.936 161.993 290.391 162.004 290.923C162.004 291.454 162.189 291.898 162.558 292.267C162.928 292.635 163.385 292.819 163.929 292.819C164.472 292.819 164.929 292.635 165.299 292.267C165.658 291.909 165.843 291.454 165.843 290.923Z" fill="white"/>
<path d="M166.615 286.977H158.73V286.045L166.615 286.034V286.977Z" fill="white"/>
<path d="M159.046 280.149V279.217H166.615V280.149H165.69C166.408 280.615 166.756 281.298 166.767 282.187C166.767 282.945 166.495 283.585 165.94 284.116C165.386 284.647 164.722 284.918 163.929 284.918C163.135 284.918 162.46 284.658 161.917 284.127C161.373 283.596 161.09 282.956 161.09 282.197C161.09 281.309 161.449 280.626 162.156 280.16L159.046 280.149ZM165.843 282.067C165.843 281.525 165.658 281.07 165.288 280.702C164.918 280.333 164.461 280.149 163.907 280.149C163.363 280.149 162.895 280.333 162.526 280.702C162.156 281.07 161.971 281.525 161.971 282.067C161.971 282.609 162.156 283.054 162.526 283.422C162.895 283.791 163.352 283.975 163.907 283.975C164.451 283.975 164.907 283.791 165.288 283.422C165.658 283.054 165.843 282.598 165.843 282.067Z" fill="white"/>
<path d="M164.331 277.136C164.809 277.038 165.19 276.821 165.451 276.475C165.712 276.128 165.854 275.694 165.854 275.185C165.854 274.47 165.593 273.96 165.06 273.635L165.516 272.833C166.332 273.353 166.734 274.144 166.734 275.207C166.734 276.063 166.463 276.756 165.93 277.288C165.397 277.819 164.712 278.09 163.896 278.09C163.08 278.09 162.406 277.829 161.862 277.309C161.318 276.789 161.047 276.106 161.047 275.272C161.047 274.48 161.329 273.841 161.884 273.342C162.439 272.844 163.113 272.594 163.896 272.594C164.037 272.594 164.168 272.605 164.32 272.627L164.331 277.136ZM161.949 275.272C161.949 275.77 162.091 276.193 162.373 276.518C162.656 276.843 163.037 277.049 163.515 277.136V273.537C163.004 273.613 162.613 273.819 162.352 274.144C162.08 274.47 161.949 274.838 161.949 275.272Z" fill="white"/>
<path d="M162.102 270.578C161.427 270.275 161.101 269.711 161.101 268.898H162.08C162.058 269.354 162.178 269.755 162.45 270.08C162.721 270.405 163.146 270.578 163.733 270.578H166.593V271.511H161.188V270.568H162.102V270.578Z" fill="white"/>
<path d="M161.057 262.612C161.057 261.983 161.253 261.474 161.656 261.095C162.058 260.715 162.602 260.52 163.287 260.52H166.604V261.463H163.341C162.906 261.463 162.558 261.582 162.319 261.821C162.08 262.059 161.96 262.384 161.96 262.796C161.96 263.262 162.112 263.642 162.395 263.924C162.689 264.216 163.135 264.357 163.744 264.357H166.604V265.3H161.199V264.368H161.982C161.362 263.967 161.057 263.392 161.057 262.612Z" fill="white"/>
<path d="M161.188 254.754V253.822H166.593V254.765H165.669C166.386 255.231 166.734 255.914 166.734 256.803C166.734 257.561 166.463 258.201 165.908 258.732C165.353 259.263 164.69 259.534 163.896 259.534C163.102 259.534 162.428 259.274 161.884 258.743C161.329 258.212 161.057 257.572 161.057 256.813C161.057 255.925 161.416 255.242 162.123 254.776L161.188 254.754ZM165.821 256.673C165.821 256.131 165.636 255.675 165.266 255.307C164.896 254.938 164.44 254.754 163.885 254.754C163.341 254.754 162.874 254.938 162.504 255.307C162.134 255.675 161.949 256.131 161.949 256.673C161.949 257.214 162.134 257.659 162.504 258.027C162.874 258.396 163.33 258.58 163.885 258.58C164.429 258.58 164.886 258.396 165.266 258.027C165.636 257.659 165.821 257.214 165.821 256.673Z" fill="white"/>
<path d="M161.036 246.582C161.036 245.975 161.231 245.487 161.623 245.119C162.015 244.75 162.547 244.555 163.222 244.555H166.582V245.487H163.254C162.841 245.487 162.515 245.595 162.286 245.812C162.058 246.029 161.938 246.311 161.938 246.668C161.938 247.07 162.08 247.395 162.341 247.633C162.613 247.872 163.026 247.991 163.581 247.991H166.582V248.934H163.254C162.841 248.934 162.515 249.031 162.286 249.237C162.058 249.443 161.938 249.725 161.938 250.072C161.938 250.462 162.08 250.798 162.352 251.058C162.624 251.318 163.037 251.448 163.581 251.448H166.582V252.391H161.177V251.459H161.906C161.329 251.091 161.036 250.56 161.036 249.855C161.036 249.129 161.34 248.598 161.949 248.273C161.351 247.904 161.047 247.34 161.036 246.582Z" fill="white"/>
<path d="M164.309 242.604C164.788 242.506 165.168 242.29 165.429 241.943C165.701 241.596 165.832 241.162 165.832 240.653C165.832 239.938 165.571 239.428 165.038 239.103L165.495 238.301C166.31 238.821 166.713 239.613 166.713 240.675C166.713 241.531 166.441 242.225 165.908 242.756C165.375 243.287 164.69 243.558 163.874 243.558C163.059 243.558 162.384 243.298 161.841 242.777C161.297 242.257 161.025 241.574 161.025 240.74C161.025 239.949 161.308 239.309 161.862 238.81C162.417 238.312 163.091 238.063 163.874 238.063C164.016 238.063 164.146 238.073 164.298 238.095L164.309 242.604ZM161.917 240.74C161.917 241.238 162.058 241.661 162.341 241.986C162.624 242.311 163.004 242.517 163.483 242.604V239.006C162.972 239.081 162.58 239.287 162.319 239.613C162.058 239.927 161.917 240.306 161.917 240.74Z" fill="white"/>
<path d="M177.501 321.151V318.875L189.072 318.864V320.599L182.003 325.541H189.072V327.817L177.501 327.828V326.105L184.548 321.151H177.501Z" fill="white"/>
<path d="M188.028 309.814C188.877 310.66 189.301 311.689 189.301 312.914C189.301 314.128 188.877 315.169 188.039 316.003C187.202 316.838 186.169 317.26 184.94 317.26C183.722 317.26 182.689 316.838 181.84 316.003C180.992 315.158 180.579 314.139 180.568 312.914C180.568 311.689 180.992 310.66 181.829 309.814C182.678 308.969 183.711 308.546 184.929 308.546C186.158 308.546 187.191 308.969 188.028 309.814ZM186.571 314.507C186.995 314.085 187.213 313.554 187.213 312.914C187.213 312.275 186.995 311.744 186.571 311.321C186.136 310.887 185.592 310.681 184.94 310.681C184.276 310.681 183.733 310.898 183.308 311.321C182.884 311.744 182.667 312.285 182.667 312.914C182.667 313.554 182.884 314.085 183.308 314.497C183.733 314.919 184.287 315.136 184.94 315.125C185.603 315.136 186.147 314.93 186.571 314.507Z" fill="white"/>
<path d="M180.568 297.946C180.568 297.003 180.872 296.244 181.492 295.681C182.112 295.117 182.939 294.835 183.972 294.835H189.062V296.96H184.124C183.624 296.96 183.243 297.079 182.971 297.328C182.699 297.567 182.558 297.913 182.558 298.347C182.558 298.835 182.721 299.203 183.037 299.474C183.352 299.745 183.82 299.875 184.429 299.875H189.072V302H184.135C183.635 302 183.254 302.119 182.982 302.368C182.71 302.607 182.569 302.953 182.569 303.387C182.569 303.864 182.732 304.232 183.047 304.514C183.363 304.796 183.83 304.937 184.439 304.937H189.083V307.061L180.818 307.072V304.948H181.688C180.948 304.449 180.579 303.69 180.579 302.661C180.579 301.653 180.97 300.905 181.764 300.417C180.959 299.854 180.568 299.03 180.568 297.946Z" fill="white"/>
<path d="M180.785 286.761V284.636L189.051 284.625V286.75H188.072C188.877 287.389 189.279 288.278 189.279 289.438C189.279 290.532 188.855 291.475 188.017 292.267C187.18 293.047 186.147 293.448 184.918 293.448C183.7 293.448 182.667 293.058 181.819 292.277C180.981 291.497 180.557 290.554 180.557 289.448C180.557 288.3 180.959 287.4 181.764 286.761H180.785ZM186.604 290.673C187.039 290.24 187.256 289.698 187.256 289.037C187.256 288.375 187.039 287.834 186.604 287.4C186.169 286.966 185.614 286.75 184.929 286.75C184.244 286.75 183.689 286.966 183.254 287.4C182.819 287.834 182.602 288.375 182.602 289.037C182.602 289.698 182.819 290.24 183.254 290.662C183.689 291.085 184.255 291.302 184.929 291.302C185.603 291.324 186.169 291.107 186.604 290.673Z" fill="white"/>
<path d="M180.546 278.133C180.546 277.233 180.851 276.486 181.449 275.9C182.058 275.315 182.895 275.022 183.961 275.011H189.04V277.136H184.233C183.678 277.136 183.265 277.288 182.971 277.58C182.678 277.873 182.536 278.274 182.536 278.762C182.536 279.314 182.71 279.748 183.047 280.084C183.385 280.409 183.907 280.582 184.581 280.572H189.04V282.696L180.774 282.707V280.582H181.699C180.938 280.062 180.546 279.249 180.546 278.133Z" fill="white"/>
<path d="M177.457 257.702L189.029 257.691V259.946H181.525L186.897 263.197L186.908 263.468L181.558 266.709H189.029V268.985L177.457 268.996V266.655L182.917 263.349L177.447 260.065L177.457 257.702Z" fill="white"/>
<path d="M180.764 249.4V247.275L189.029 247.265V249.389H188.05C188.855 250.028 189.257 250.917 189.257 252.077C189.257 253.172 188.833 254.115 187.996 254.906C187.158 255.686 186.125 256.087 184.896 256.087C183.678 256.087 182.645 255.697 181.797 254.917C180.948 254.136 180.535 253.193 180.535 252.088C180.535 250.939 180.938 250.039 181.742 249.4H180.764ZM186.571 253.313C187.006 252.879 187.224 252.337 187.224 251.676C187.224 251.015 187.006 250.473 186.571 250.039C186.136 249.606 185.571 249.389 184.896 249.389C184.211 249.389 183.656 249.606 183.221 250.039C182.786 250.473 182.569 251.015 182.569 251.676C182.569 252.337 182.786 252.879 183.221 253.302C183.656 253.724 184.211 253.941 184.896 253.941C185.581 253.963 186.136 253.746 186.571 253.313Z" fill="white"/>
<path d="M180.524 240.772C180.524 239.873 180.829 239.125 181.427 238.54C182.036 237.954 182.873 237.662 183.939 237.651H189.018V239.775H184.211C183.656 239.775 183.243 239.927 182.95 240.219C182.656 240.512 182.515 240.913 182.515 241.401C182.515 241.954 182.689 242.387 183.026 242.723C183.363 243.048 183.885 243.222 184.559 243.211H189.018V245.335L180.753 245.346V243.222H181.677C180.905 242.712 180.524 241.889 180.524 240.772Z" fill="white"/>
<path d="M187.017 233.348V229.695H189.018V236.188H187.604L182.754 232.719V236.025H180.753V229.858H182.167L187.017 233.348Z" fill="white"/>
<path d="M187.974 221.61C188.822 222.455 189.246 223.485 189.246 224.709C189.246 225.923 188.822 226.964 187.985 227.798C187.147 228.633 186.114 229.056 184.885 229.056C183.667 229.056 182.634 228.633 181.786 227.798C180.938 226.953 180.524 225.934 180.513 224.709C180.513 223.485 180.938 222.455 181.775 221.61C182.623 220.764 183.646 220.341 184.874 220.341C186.093 220.341 187.126 220.764 187.974 221.61ZM186.517 226.292C186.941 225.869 187.158 225.338 187.158 224.699C187.158 224.059 186.941 223.528 186.517 223.105C186.082 222.672 185.538 222.466 184.885 222.466C184.222 222.466 183.678 222.683 183.254 223.105C182.83 223.528 182.612 224.07 182.612 224.699C182.612 225.338 182.83 225.869 183.254 226.281C183.678 226.704 184.233 226.921 184.885 226.91C185.538 226.931 186.082 226.715 186.517 226.292Z" fill="white"/>
<path d="M187.963 211.822C188.811 212.668 189.225 213.697 189.236 214.922C189.236 216.136 188.811 217.177 187.974 218.011C187.137 218.846 186.103 219.268 184.874 219.268C183.656 219.268 182.612 218.846 181.775 218.011C180.927 217.166 180.513 216.147 180.513 214.922C180.513 213.697 180.938 212.668 181.775 211.822C182.612 210.977 183.646 210.554 184.874 210.554C186.082 210.554 187.115 210.977 187.963 211.822ZM186.506 216.505C186.941 216.082 187.147 215.551 187.147 214.911C187.147 214.272 186.93 213.741 186.506 213.318C186.071 212.885 185.527 212.679 184.864 212.679C184.2 212.679 183.656 212.895 183.232 213.318C182.797 213.741 182.591 214.283 182.591 214.911C182.591 215.551 182.808 216.082 183.232 216.494C183.656 216.916 184.211 217.133 184.864 217.122C185.527 217.144 186.071 216.927 186.506 216.505Z" fill="white"/>
<path d="M182.145 206.934C181.612 206.739 181.22 206.414 180.959 205.959C180.698 205.503 180.557 204.994 180.557 204.43H182.939C182.863 205.081 182.993 205.655 183.341 206.165C183.678 206.674 184.244 206.934 185.048 206.934H188.996V209.059L180.731 209.069V206.945H182.145V206.934Z" fill="white"/>
<path d="M165.527 95.7191V92.2182H166.473V96.7162H158.904V92.2724H159.861V95.7191H162.189V92.5434H163.124V95.7191H165.527Z" fill="white"/>
<path d="M166.463 86.4412V87.5359L164.418 89.0533L166.463 90.5599V91.6546L163.678 89.5953L161.057 91.5354V90.4298L162.928 89.0425L161.047 87.6551V86.5604L163.668 88.5006L166.463 86.4412Z" fill="white"/>
<path d="M160.927 82.5935C160.927 81.8348 161.199 81.1954 161.754 80.6643C162.308 80.1332 162.982 79.8622 163.765 79.8622C164.559 79.8622 165.234 80.1223 165.777 80.6534C166.332 81.1845 166.604 81.824 166.604 82.5827C166.604 83.4715 166.245 84.1543 165.538 84.6204H168.627V85.5525L161.057 85.5633V84.6204H161.982C161.275 84.1651 160.927 83.4823 160.927 82.5935ZM165.701 82.7128C165.701 82.1708 165.516 81.7264 165.147 81.3579C164.777 80.9894 164.32 80.8052 163.765 80.8052C163.222 80.8052 162.754 80.9894 162.384 81.3579C162.015 81.7264 161.83 82.1817 161.83 82.7128C161.83 83.2547 162.015 83.7099 162.384 84.0784C162.754 84.447 163.211 84.6312 163.765 84.6312C164.309 84.6312 164.766 84.447 165.147 84.0784C165.516 83.7099 165.701 83.2547 165.701 82.7128Z" fill="white"/>
<path d="M160.079 78.2798C160.079 78.464 160.013 78.6049 159.894 78.735C159.774 78.8542 159.622 78.9193 159.448 78.9193C159.274 78.9193 159.122 78.8542 159.002 78.735C158.872 78.6158 158.817 78.464 158.817 78.2798C158.817 78.1064 158.882 77.9655 159.002 77.8354C159.133 77.7162 159.274 77.6511 159.448 77.6511C159.622 77.6511 159.763 77.7162 159.894 77.8354C160.013 77.9546 160.079 78.1064 160.079 78.2798ZM166.463 78.7458H161.057V77.8029H166.463V78.7458Z" fill="white"/>
<path d="M161.96 75.4509C161.286 75.1474 160.96 74.5838 160.96 73.7709H161.938C161.917 74.2261 162.036 74.6272 162.308 74.9523C162.58 75.2775 163.004 75.4509 163.591 75.4509H166.452V76.383H161.047V75.44H161.96V75.4509Z" fill="white"/>
<path d="M161.057 68.9694V67.9723L166.8 70.1616C167.409 70.3893 167.876 70.7144 168.203 71.1263C168.518 71.5381 168.67 72.015 168.627 72.557H167.757C167.811 71.8958 167.441 71.4189 166.647 71.1154L166.441 71.0179L161.057 73.3699V72.3727L165.201 70.5735L161.057 68.9694Z" fill="white"/>
<path d="M158.882 61.4582C158.882 60.4286 159.252 59.5832 159.981 58.9003C160.709 58.2175 161.601 57.8815 162.667 57.8815C163.722 57.8815 164.625 58.2175 165.353 58.9003C166.082 59.5832 166.452 60.4286 166.452 61.4582V64.3955L158.882 64.4063V61.4582ZM165.495 61.4582C165.495 60.6887 165.223 60.0601 164.679 59.5723C164.135 59.0846 163.461 58.8461 162.656 58.8461C161.851 58.8461 161.177 59.0954 160.633 59.5832C160.09 60.0709 159.829 60.6995 159.829 61.4691V63.4092H165.495V61.4582Z" fill="white"/>
<path d="M161.036 52.2996V51.3675H166.441V52.3104H165.516C166.234 52.7765 166.582 53.4593 166.593 54.3481C166.593 55.1068 166.321 55.7463 165.767 56.2774C165.212 56.8085 164.548 57.0794 163.755 57.0794C162.961 57.0794 162.286 56.8193 161.743 56.2882C161.188 55.7571 160.916 55.1177 160.916 54.359C160.916 53.4702 161.275 52.7874 161.982 52.3213L161.036 52.2996ZM165.68 54.218C165.68 53.6761 165.495 53.2209 165.125 52.8524C164.755 52.4839 164.298 52.2996 163.744 52.2996C163.2 52.2996 162.732 52.4839 162.363 52.8524C161.993 53.2209 161.808 53.6761 161.808 54.218C161.808 54.76 161.993 55.2044 162.363 55.5729C162.732 55.9414 163.189 56.1256 163.744 56.1256C164.287 56.1256 164.744 55.9414 165.125 55.5729C165.495 55.2044 165.68 54.76 165.68 54.218Z" fill="white"/>
<path d="M161.949 47.0212V48.4519H164.875C165.147 48.4519 165.331 48.3977 165.44 48.3002C165.549 48.1918 165.614 48.04 165.614 47.8233C165.614 47.6065 165.614 47.3463 165.593 47.0212H166.441C166.55 47.8449 166.484 48.4411 166.245 48.8204C166.006 49.1998 165.549 49.3949 164.875 49.3949H161.949V50.4571H161.047V49.3949H159.818L159.535 48.4627H161.047V47.032L161.949 47.0212Z" fill="white"/>
<path d="M164.168 45.5146C164.646 45.4171 165.027 45.2003 165.288 44.8535C165.56 44.5066 165.69 44.0731 165.69 43.5637C165.69 42.8483 165.429 42.3389 164.896 42.0138L165.353 41.2117C166.169 41.732 166.571 42.5232 166.571 43.5854C166.571 44.4416 166.299 45.1353 165.767 45.6664C165.234 46.1975 164.548 46.4684 163.733 46.4684C162.917 46.4684 162.243 46.2083 161.699 45.6881C161.155 45.1678 160.883 44.485 160.883 43.6504C160.883 42.8592 161.166 42.2197 161.721 41.7103C162.276 41.2117 162.95 40.9624 163.733 40.9624C163.874 40.9624 164.005 40.9732 164.157 40.9949L164.168 45.5146ZM161.775 43.6612C161.775 44.1598 161.917 44.5825 162.199 44.9077C162.482 45.2328 162.863 45.4388 163.341 45.5255V41.9271C162.83 42.0029 162.439 42.2089 162.178 42.534C161.917 42.8483 161.775 43.2277 161.775 43.6612Z" fill="white"/>
<path d="M187.485 89.0425C188.572 89.8229 189.116 90.9176 189.127 92.3158C189.127 93.7248 188.583 94.8195 187.495 95.5999C186.408 96.3803 184.951 96.7704 183.134 96.7704C181.318 96.7704 179.861 96.3803 178.773 95.5999C177.686 94.8195 177.131 93.7248 177.131 92.3266C177.131 90.9176 177.675 89.8337 178.763 89.0534C179.85 88.273 181.307 87.8828 183.124 87.8828C184.94 87.872 186.397 88.2621 187.485 89.0425ZM186.451 94.4835C187.234 93.9741 187.626 93.2587 187.626 92.3266C187.626 91.3945 187.234 90.6683 186.451 90.1589C185.668 89.6495 184.559 89.3893 183.124 89.4002C181.688 89.411 180.579 89.6603 179.796 90.1697C179.013 90.6792 178.61 91.4053 178.61 92.3375C178.61 93.2696 179.002 93.9958 179.785 94.4943C180.568 95.0038 181.677 95.253 183.124 95.253C184.559 95.2422 185.668 94.9821 186.451 94.4835Z" fill="white"/>
<path d="M188.909 86.7556H187.648L183.482 82.6911C182.395 81.6072 181.46 81.0653 180.677 81.0653C180.024 81.0653 179.524 81.2604 179.154 81.6614C178.795 82.0516 178.61 82.5394 178.61 83.1138C178.61 84.1977 179.132 84.9889 180.165 85.4875L179.404 86.7773C178.654 86.4196 178.088 85.9102 177.697 85.2707C177.305 84.6312 177.12 83.9159 177.12 83.1355C177.12 82.1708 177.436 81.3254 178.077 80.6101C178.719 79.8947 179.578 79.5371 180.655 79.5371C181.829 79.5371 183.102 80.2199 184.472 81.5964L187.419 84.5337V79.3203H188.909V86.7556Z" fill="white"/>
<path d="M190.53 77.1742L190.551 78.0305L175.696 71.4514L175.674 70.5952L190.53 77.1742Z" fill="white"/>
<path d="M182.058 64.7748C182.221 63.8969 182.602 63.1707 183.2 62.618C183.798 62.0544 184.548 61.7726 185.462 61.7726C186.582 61.7726 187.474 62.1519 188.126 62.9214C188.779 63.691 189.105 64.6231 189.105 65.7178C189.105 66.5957 188.909 67.3761 188.507 68.059C188.104 68.7418 187.528 69.2187 186.767 69.5113L186.006 68.2324C187.071 67.8964 187.604 67.0618 187.604 65.7286C187.604 65.0133 187.419 64.428 187.039 63.9836C186.658 63.5392 186.136 63.3116 185.473 63.3116C184.798 63.3116 184.276 63.5392 183.896 63.9836C183.515 64.4388 183.33 65.0133 183.33 65.7286V66.1188L182.384 66.7258L178.763 64.0595V69.1862H177.327V62.2711L178.676 62.282L182.058 64.7748Z" fill="white"/>
<path d="M187.463 52.6898C188.55 53.4702 189.105 54.5649 189.105 55.9631C189.105 57.3721 188.561 58.4668 187.474 59.2472C186.386 60.0275 184.929 60.4177 183.113 60.4177C181.297 60.4177 179.839 60.0275 178.752 59.2472C177.664 58.4668 177.12 57.3721 177.109 55.9739C177.109 54.5649 177.653 53.481 178.741 52.7006C179.828 51.9202 181.286 51.5301 183.102 51.5301C184.918 51.5301 186.364 51.9094 187.463 52.6898ZM186.419 58.1199C187.202 57.6105 187.593 56.8952 187.593 55.9631C187.593 55.0309 187.202 54.3047 186.419 53.7953C185.636 53.2859 184.526 53.0258 183.102 53.0258C181.666 53.0258 180.557 53.2859 179.774 53.7953C178.991 54.3047 178.589 55.0309 178.599 55.9631C178.599 56.8952 178.991 57.6213 179.774 58.1199C180.557 58.6293 181.666 58.8786 183.113 58.8786C184.537 58.8786 185.636 58.6293 186.419 58.1199Z" fill="white"/>
<path d="M35.4472 29.5602V33.0611C35.4472 34.1558 35.7517 34.9795 36.8284 35.4455L52.1518 42.1655V37.3965C52.1518 37.3965 50.0963 36.6053 49.6613 36.4427V30.6332C50.2377 30.4923 52.1518 30.0805 52.1518 30.0805V25.8642L35.4472 29.5602ZM46.2356 35.1421C45.2785 34.7736 41.5483 33.3646 41.5483 33.3646C41.5483 33.3646 40.5695 32.9744 39.9714 32.7467L41.4069 32.4433C41.4069 32.4433 45.3873 31.5653 46.2356 31.3919V35.1421Z" fill="white"/>
<path d="M40.091 48.2134C40.8632 48.2243 41.3852 47.238 42.1573 45.6555C43.3536 43.0434 44.7892 41.8295 46.7032 41.862C50.1725 41.8837 52.4128 44.9835 52.4128 49.7417C52.391 51.7794 51.9778 53.7303 51.521 54.7925L47.7799 54.153L48.0409 53.5786C48.6608 52.0937 48.9218 51.1182 48.9218 49.3082C48.9218 48.0075 48.4107 46.6093 47.2905 46.5877C46.551 46.5768 46.029 47.1838 45.2133 48.9397C44.4194 50.6738 43.0817 52.9499 40.6892 52.9174C37.4483 52.8958 35.1645 49.7309 35.1645 45.2545C35.1645 43.4987 35.5343 42.0788 35.8714 41.19L39.482 41.8078L39.2971 42.2197C38.96 43.0651 38.6446 44.1381 38.6555 45.623C38.6446 47.3897 39.395 48.2134 40.091 48.2134Z" fill="white"/>
<path d="M35.4581 54.8142L52.1518 57.6431V62.1736L48.9109 61.6208L43.582 60.7212L35.469 59.3555L35.4581 54.8142Z" fill="white"/>
<path d="M44.0605 71.0938C40.1998 72.6112 36.9915 76.2313 35.6647 81.7048L35.3276 81.6506V74.6163C35.3711 73.6625 35.6647 72.893 36.687 72.6328L44.0605 71.0938Z" fill="white"/>
<path d="M35.4799 61.1873L52.1409 68.3299V73.1206L38.2205 77.1851C40.1019 74.2695 43.0818 71.7874 45.1481 70.9095L46.8773 70.4326L35.4799 65.9888V61.1873Z" fill="white"/>
<path d="M36.6435 291.822L56.0017 291.811C58.2855 291.811 60.156 293.676 60.156 295.941L60.1778 322.582C60.1778 324.869 58.3072 326.733 56.0343 326.733L36.6762 326.755C34.3815 326.755 32.5218 324.891 32.5218 322.615L32.5 295.962C32.5 293.686 34.3488 291.822 36.6435 291.822Z" fill="#F6C859"/>
<path d="M56.4802 313.283C56.4802 313.434 56.4041 313.575 56.2627 313.64C56.0669 313.738 55.8168 313.662 55.7189 313.467C55.4144 312.882 54.8489 312.09 53.881 311.624C52.6412 311.039 51.2926 311.191 51.173 311.44C51.1404 311.505 51.2709 311.744 51.347 311.895C51.5428 312.275 51.8147 312.806 51.5972 313.413C51.3905 314.009 50.8576 314.301 50.5966 314.442C48.9109 315.364 44.5391 315.645 42.364 314.681C41.6462 314.356 41.2112 313.922 41.0807 313.38C40.9502 312.827 41.1786 312.372 41.3743 312.014C41.5266 311.722 41.5918 311.57 41.5375 311.473C41.3091 311.093 39.917 311.104 38.8186 311.635C37.8398 312.101 37.2743 312.892 36.9807 313.478C36.8828 313.673 36.6327 313.76 36.4369 313.651C36.2412 313.554 36.1542 313.304 36.2629 313.109C36.6218 312.416 37.2961 311.462 38.4815 310.909C39.6452 310.356 41.6571 310.096 42.2444 311.061C42.538 311.548 42.2987 312.014 42.1139 312.383C41.9725 312.665 41.8311 312.936 41.8964 313.196C41.9834 313.554 42.3857 313.792 42.712 313.944C44.6152 314.789 48.7478 314.54 50.2269 313.738C50.477 313.597 50.7489 313.434 50.8468 313.153C50.9446 312.882 50.825 312.621 50.6401 312.264C50.4552 311.906 50.2595 311.516 50.4552 311.093C50.9011 310.183 52.8478 310.248 54.2399 310.898C55.4253 311.462 56.0996 312.405 56.4584 313.098C56.4693 313.163 56.4802 313.228 56.4802 313.283Z" fill="#7D662D"/>
<path d="M43.0926 314.507V321.78C43.0926 322.008 42.9077 322.181 42.6902 322.181C42.4727 322.181 42.2878 322.008 42.2878 321.791V314.518C42.2878 314.291 42.4727 314.117 42.6902 314.117C42.9077 314.106 43.0926 314.28 43.0926 314.507Z" fill="#7D662D"/>
<path d="M50.4009 314.507V321.78C50.4009 322.008 50.216 322.181 49.9985 322.181C49.7701 322.181 49.5961 321.997 49.5961 321.78V314.507C49.5961 314.28 49.781 314.106 49.9985 314.106C50.216 314.096 50.4009 314.28 50.4009 314.507Z" fill="#7D662D"/>
<path d="M56.4693 304.796C56.4693 304.861 56.4584 304.926 56.4258 304.98C56.0669 305.674 55.3926 306.628 54.2072 307.18C52.8152 307.842 50.8685 307.896 50.4226 306.996C50.216 306.573 50.4226 306.172 50.5966 305.826C50.7815 305.457 50.9011 305.197 50.8032 304.937C50.6945 304.633 50.3791 304.46 50.1833 304.352C48.7043 303.55 44.5608 303.311 42.6685 304.156C42.3422 304.308 41.929 304.547 41.8528 304.904C41.7985 305.121 41.5809 305.262 41.3634 305.208C41.1459 305.154 41.0154 304.937 41.0589 304.72C41.1894 304.178 41.6136 303.745 42.3313 303.419C44.5064 302.444 48.8892 302.726 50.564 303.647C50.825 303.788 51.3579 304.081 51.5645 304.677C51.782 305.284 51.5101 305.815 51.3144 306.194C51.2383 306.346 51.1186 306.584 51.1404 306.649C51.26 306.888 52.6085 307.05 53.8483 306.454C54.8271 305.988 55.3926 305.197 55.6863 304.612C55.7842 304.417 56.0343 304.33 56.23 304.438C56.3932 304.503 56.4693 304.644 56.4693 304.796Z" fill="#7D662D"/>
<path d="M41.4613 306.422C41.4613 306.595 41.3526 306.747 41.1894 306.801C38.5794 307.668 36.5674 305.641 36.2412 304.991C36.1324 304.796 36.2194 304.547 36.4152 304.449C36.6109 304.352 36.8611 304.427 36.9589 304.623C37.1112 304.915 38.7099 306.779 40.9284 306.042C41.1459 305.967 41.3743 306.086 41.4396 306.303C41.4613 306.335 41.4613 306.378 41.4613 306.422Z" fill="#7D662D"/>
<path d="M43.0818 296.309V303.582C43.0818 303.81 42.8969 303.983 42.6794 303.983C42.4619 303.983 42.277 303.799 42.277 303.582V296.309C42.277 296.082 42.4619 295.908 42.6794 295.908C42.8969 295.908 43.0818 296.093 43.0818 296.309Z" fill="#7D662D"/>
<path d="M50.3791 296.309V303.582C50.3791 303.81 50.1942 303.983 49.9767 303.983C49.7483 303.983 49.5743 303.799 49.5743 303.582V296.309C49.5743 296.082 49.7592 295.908 49.9767 295.908C50.2051 295.908 50.3791 296.082 50.3791 296.309Z" fill="#7D662D"/>
<defs>
<linearGradient id="paint0_linear_13_27" x1="131.102" y1="330.485" x2="31.9556" y2="291.85" gradientUnits="userSpaceOnUse">
<stop stop-color="#885DF5"/>
<stop offset="0.9944" stop-color="#6B7CFE"/>
</linearGradient>
<linearGradient id="paint1_linear_13_27" x1="220.629" y1="278.644" x2="44.8982" y2="210.166" gradientUnits="userSpaceOnUse">
<stop stop-color="#885DF5"/>
<stop offset="0.9944" stop-color="#6B7CFE"/>
</linearGradient>
<linearGradient id="paint2_linear_13_27" x1="41.6439" y1="77.3595" x2="36.8374" y2="75.4865" gradientUnits="userSpaceOnUse">
<stop stop-color="#885DF5"/>
<stop offset="0.9944" stop-color="#6B7CFE"/>
</linearGradient>
<linearGradient id="paint3_linear_13_27" x1="51.9571" y1="75.2647" x2="38.4252" y2="69.9917" gradientUnits="userSpaceOnUse">
<stop stop-color="#885DF5"/>
<stop offset="0.9944" stop-color="#6B7CFE"/>
</linearGradient>
<linearGradient id="paint4_linear_13_27" x1="53.475" y1="51.3924" x2="40.1711" y2="46.208" gradientUnits="userSpaceOnUse">
<stop stop-color="#885DF5"/>
<stop offset="0.9944" stop-color="#6B7CFE"/>
</linearGradient>
<linearGradient id="paint5_linear_13_27" x1="55.4049" y1="35.5118" x2="41.6787" y2="30.163" gradientUnits="userSpaceOnUse">
<stop stop-color="#885DF5"/>
<stop offset="0.9944" stop-color="#6B7CFE"/>
</linearGradient>
<linearGradient id="paint6_linear_13_27" x1="291.664" y1="207.169" x2="72.9438" y2="121.938" gradientUnits="userSpaceOnUse">
<stop stop-color="#885DF5"/>
<stop offset="0.9944" stop-color="#6B7CFE"/>
</linearGradient>
<linearGradient id="paint7_linear_13_27" x1="56.398" y1="354.475" x2="56.3214" y2="247.63" gradientUnits="userSpaceOnUse">
<stop stop-color="#4D338A"/>
<stop offset="0.9888" stop-color="#252857"/>
</linearGradient>
<linearGradient id="paint8_linear_13_27" x1="90.2483" y1="354.451" x2="90.0677" y2="102.434" gradientUnits="userSpaceOnUse">
<stop stop-color="#6947BD"/>
<stop offset="0.9888" stop-color="#252857"/>
</linearGradient>
<linearGradient id="paint9_linear_13_27" x1="112.8" y1="354.435" x2="112.585" y2="53.3528" gradientUnits="userSpaceOnUse">
<stop stop-color="#885DF5"/>
<stop offset="0.9888" stop-color="#2E3670"/>
</linearGradient>
<linearGradient id="paint10_linear_13_27" x1="41.6439" y1="77.3595" x2="36.8374" y2="75.4865" gradientUnits="userSpaceOnUse">
<stop stop-color="#885DF5"/>
<stop offset="0.9944" stop-color="#6B7CFE"/>
</linearGradient>
<linearGradient id="paint11_linear_13_27" x1="51.9571" y1="75.2647" x2="38.4252" y2="69.9917" gradientUnits="userSpaceOnUse">
<stop stop-color="#885DF5"/>
<stop offset="0.9944" stop-color="#6B7CFE"/>
</linearGradient>
<linearGradient id="paint12_linear_13_27" x1="112.745" y1="277.281" x2="112.547" y2="0.927921" gradientUnits="userSpaceOnUse">
<stop stop-color="#885DF5"/>
<stop offset="0.9944" stop-color="#4551A6"/>
</linearGradient>
<linearGradient id="paint13_linear_13_27" x1="53.475" y1="51.3924" x2="40.1711" y2="46.208" gradientUnits="userSpaceOnUse">
<stop stop-color="#885DF5"/>
<stop offset="0.9944" stop-color="#6B7CFE"/>
</linearGradient>
<linearGradient id="paint14_linear_13_27" x1="55.4049" y1="35.5118" x2="41.6787" y2="30.163" gradientUnits="userSpaceOnUse">
<stop stop-color="#885DF5"/>
<stop offset="0.9944" stop-color="#6B7CFE"/>
</linearGradient>
<linearGradient id="paint15_linear_13_27" x1="144.117" y1="204.725" x2="143.971" y2="0.90539" gradientUnits="userSpaceOnUse">
<stop stop-color="#885DF5"/>
<stop offset="0.9944" stop-color="#5C6BDB"/>
</linearGradient>
<linearGradient id="paint16_linear_13_27" x1="291.664" y1="207.169" x2="72.9438" y2="121.938" gradientUnits="userSpaceOnUse">
<stop stop-color="#885DF5"/>
<stop offset="0.9944" stop-color="#6B7CFE"/>
</linearGradient>
<linearGradient id="paint17_linear_13_27" x1="179.996" y1="164.455" x2="179.879" y2="0.879726" gradientUnits="userSpaceOnUse">
<stop stop-color="#885DF5"/>
<stop offset="0.9944" stop-color="#6B7CFE"/>
</linearGradient>
</defs>
</svg>
