<svg width="29" height="28" viewBox="0 0 29 28" fill="none" xmlns="http://www.w3.org/2000/svg">
<path d="M5.99149 12.717C5.73082 12.7172 5.47715 12.6358 5.26885 12.4851C5.06055 12.3343 4.90894 12.1224 4.83695 11.8814C4.76496 11.6403 4.77651 11.3833 4.86985 11.1492C4.96319 10.915 5.13324 10.7165 5.35429 10.5836L8.57989 7.48048C8.80506 7.26402 9.11039 7.14247 9.42871 7.14258C9.74704 7.14269 10.0523 7.26444 10.2773 7.48106C10.5023 7.69768 10.6286 7.99141 10.6285 8.29765C10.6284 8.60389 10.5019 8.89754 10.2767 9.114L8.93149 10.407H17.9915C18.3097 10.407 18.615 10.5286 18.84 10.7451C19.0651 10.9616 19.1915 11.2552 19.1915 11.5614C19.1915 11.8676 19.0651 12.1612 18.84 12.3777C18.615 12.5942 18.3097 12.7158 17.9915 12.7158H5.99149V12.717ZM22.8083 14.9889C23.069 14.9886 23.3226 15.0701 23.5309 15.2208C23.7392 15.3716 23.8908 15.5835 23.9628 15.8245C24.0348 16.0655 24.0233 16.3226 23.9299 16.5567C23.8366 16.7908 23.6665 16.9894 23.4455 17.1223L20.2199 20.2254C20.1084 20.3326 19.9761 20.4176 19.8304 20.4756C19.6848 20.5335 19.5287 20.5634 19.3711 20.5633C19.2134 20.5632 19.0574 20.5333 18.9118 20.4752C18.7662 20.4172 18.6339 20.3321 18.5225 20.2248C18.4111 20.1176 18.3227 19.9902 18.2624 19.8501C18.2022 19.71 18.1712 19.5599 18.1712 19.4082C18.1713 19.2566 18.2024 19.1065 18.2628 18.9664C18.3231 18.8263 18.4116 18.6991 18.5231 18.5919L19.8683 17.2989H10.8083C10.49 17.2989 10.1848 17.1773 9.95976 16.9608C9.73472 16.7443 9.60829 16.4507 9.60829 16.1445C9.60829 15.8383 9.73472 15.5447 9.95976 15.3282C10.1848 15.1117 10.49 14.9901 10.8083 14.9901H22.8083V14.9889Z" fill="white"/>
</svg>
